<?xml version="1.0" standalone="no"?>
<!DOCTYPE svg PUBLIC "-//W3C//DTD SVG 20010904//EN"
 "http://www.w3.org/TR/2001/REC-SVG-20010904/DTD/svg10.dtd">
<svg version="1.0" xmlns="http://www.w3.org/2000/svg"
 width="256.000000pt" height="256.000000pt" viewBox="0 0 256.000000 256.000000"
 preserveAspectRatio="xMidYMid meet">

<g transform="translate(0.000000,256.000000) scale(0.100000,-0.100000)"
fill="#000000" stroke="none">
<path d="M203 2542 c-100 -35 -171 -115 -193 -216 -8 -36 -10 -356 -8 -1076
l3 -1025 28 -57 c32 -64 80 -111 146 -142 46 -21 49 -21 1101 -21 l1055 0 57
28 c64 32 111 80 142 146 21 46 21 49 21 1101 0 1052 0 1055 -21 1101 -31 66
-78 114 -142 146 l-57 28 -1040 2 c-978 2 -1043 1 -1092 -15z m948 -727 c101
-134 189 -244 194 -244 6 0 106 110 223 245 l213 244 130 0 131 0 -40 -47
c-23 -27 -151 -174 -286 -328 -135 -154 -244 -285 -242 -291 2 -6 150 -204
328 -440 179 -236 328 -435 332 -442 6 -9 -48 -12 -257 -12 l-264 0 -201 264
c-111 146 -206 268 -211 271 -5 3 -116 -116 -246 -265 l-236 -270 -131 0
c-124 0 -130 1 -116 18 8 9 140 161 294 337 153 176 285 328 292 337 12 15
-20 60 -264 380 -153 200 -299 391 -327 426 l-49 62 275 0 274 0 184 -245z"/>
<path d="M842 1762 c62 -81 277 -362 478 -625 l365 -477 73 0 74 0 -29 38
c-15 21 -228 302 -472 625 l-444 587 -79 0 -79 0 113 -148z"/>
</g>
</svg>
